<svg xmlns="http://www.w3.org/2000/svg" viewBox="0 0 280 64" fill="none">
  <!-- Heart and Sprout Emblem -->
  <g transform="translate(4, 4)">
    <!-- Outer Soft Shield/Circle Background -->
    <rect width="56" height="56" rx="16" fill="#1F3D2B"/>
    <!-- Gentle Loving Heart & Warm Sprout -->
    <path d="M28 44C28 44 14 34.5 14 24.5C14 19 18 15 23.5 15C25.8 15 27.2 16 28 17C28.8 16 30.2 15 32.5 15C38 15 42 19 42 24.5C42 34.5 28 44 28 44Z" fill="#E4A93C"/>
    <!-- Sprout Leaf in Heart (Deep Green) -->
    <path d="M28 22C28 22 25 26 25 30C27 30 31 29 31 26C31 23 28 22 28 22Z" fill="#1F3D2B"/>
    <path d="M28 22C28 22 31 25 31 28C29.5 28.5 26.5 28 26.5 25C26.5 23.2 28 22 28 22Z" fill="#FBFAF7" opacity="0.85"/>
  </g>
  <!-- Text: 더사랑 주간보호센터 -->
  <text x="72" y="32" font-family="'Noto Sans KR', 'Pretendard', sans-serif" font-weight="800" font-size="21" fill="#1F3D2B" letter-spacing="-0.03em">
    더사랑 <tspan fill="#7A9070" font-weight="600" font-size="16">주간보호센터</tspan>
  </text>
  <text x="73" y="49" font-family="'Noto Sans KR', 'Pretendard', sans-serif" font-weight="500" font-size="11" fill="#7A9070" letter-spacing="0.02em">
    걷기전문 100m트랙 · 운동재활 · 숲체험
  </text>
</svg>
